HIERARCHY
ROOT Hips
{
  OFFSET 0 0 0
  CHANNELS 6 Xposition Yposition Zposition Zrotation Yrotation Xrotation
  JOINT LeftThigh
  {
    OFFSET 8.409438 0 -5.917753
    CHANNELS 3 Zrotation Yrotation Xrotation
    JOINT LeftLeg
    {
      OFFSET 0 0 -42.358652
      CHANNELS 3 Zrotation Yrotation Xrotation
      JOINT LeftFoot
      {
        OFFSET 0 0 -39.357303
        CHANNELS 3 Zrotation Yrotation Xrotation
      }
    }
  }
  JOINT RightThigh
  {
    OFFSET -8.409438 0 -5.917753
    CHANNELS 3 Zrotation Yrotation Xrotation
    JOINT RightLeg
    {
      OFFSET 0 0 -42.358652
      CHANNELS 3 Zrotation Yrotation Xrotation
      JOINT RightFoot
      {
        OFFSET 0 0 -39.357303
        CHANNELS 3 Zrotation Yrotation Xrotation
      }
    }
  }
  JOINT SpineLow
  {
    OFFSET 0 0 4.719101
    CHANNELS 3 Zrotation Yrotation Xrotation
    JOINT SpineMid
    {
      OFFSET 0 0 12.899191
      CHANNELS 3 Zrotation Yrotation Xrotation
      JOINT Chest
      {
        OFFSET 0 0 12.899191
        CHANNELS 3 Zrotation Yrotation Xrotation
        JOINT LeftShoulder
        {
          OFFSET 7.550562 1.41573 9.438202
          CHANNELS 3 Zrotation Yrotation Xrotation
          JOINT LeftArm
          {
            OFFSET 9.155056 0 4.247191
            CHANNELS 3 Zrotation Yrotation Xrotation
            JOINT LeftForearm
            {
              OFFSET 0 0 25.771955
              CHANNELS 3 Zrotation Yrotation Xrotation
              JOINT LeftHand
              {
                OFFSET 0 0 25.197169
                CHANNELS 3 Zrotation Yrotation Xrotation
              }
            }
          }
        }
        JOINT RightShoulder
        {
          OFFSET -7.550562 1.41573 9.438202
          CHANNELS 3 Zrotation Yrotation Xrotation
          JOINT RightArm
          {
            OFFSET -9.155056 0 4.247191
            CHANNELS 3 Zrotation Yrotation Xrotation
            JOINT RightForearm
            {
              OFFSET 0 0 -25.771955
              CHANNELS 3 Zrotation Yrotation Xrotation
              JOINT RightHand
              {
                OFFSET 0 0 -25.197169
                CHANNELS 3 Zrotation Yrotation Xrotation
              }
            }
          }
        }
        JOINT Neck
        {
          OFFSET 0 0 15.101124
          CHANNELS 3 Zrotation Yrotation Xrotation
          JOINT Head
          {
            OFFSET 0 0 11.325843
            CHANNELS 3 Zrotation Yrotation Xrotation
            End Site
            {
              OFFSET 0 0 14.157303
            }
          }
        }
      }
    }
  }
}
MOTION
Frames: 7
Frame Time: 0.0
0.0  89.887642  0.0  3.984133  -11.718259  -100.217928  9.093993  -13.189255  4.014039  1.479612  7.869511  26.168523  -2.545025  0.104967  -1.145929  -19.597118  12.284068  -7.128311  -15.148784  10.874047  17.917177  12.212425  4.452161  -0.854783  6.383822  -0.451674  2.735895  17.377178  -1.941113  7.301707  17.377179  -1.941113  7.301708  -7.274951  -5.522753  -9.531948  174.477086  27.545643  -143.375599  -0.081937  -17.114464  53.642827  100.643185  0.445318  21.058412  3.156381  -14.026404  9.905337  97.377604  33.160192  24.317338  8.452193  -27.310537  -95.637695  52.838836  -6.690332  -25.626284  -29.91836  0.338915  0.774834  -22.439177  0.21682  0.599449  
0.0  89.887642  0.0  4.47015  -17.162317  -100.569542  10.593814  -13.507008  4.663574  2.804605  8.718333  26.830727  -1.598947  -0.041052  -1.037119  -16.267268  11.379279  -8.743582  -13.054555  11.273324  20.078977  12.5094  4.614231  -0.78074  6.449243  -0.46492  2.577945  17.560241  -1.942453  6.867441  17.560242  -1.942453  6.867441  -5.929838  -4.441012  -6.272445  179.971492  25.92881  -148.72452  -10.101596  -13.10482  64.583156  95.017983  1.007417  20.441277  0.681978  -13.932974  11.555625  93.801974  33.326967  23.935449  8.33168  -25.251056  -96.54887  55.620798  -4.9406  -24.411799  -27.105737  1.353285  1.010957  -20.330651  0.972354  0.820202  
0.0  89.887642  0.0  5.09517  -22.576729  -100.904774  11.791958  -13.859968  5.114839  4.115634  9.969277  27.697626  -0.81399  0.009333  -1.167168  -12.544702  10.284984  -10.247422  -10.524937  11.623687  22.16718  12.645664  4.709833  -0.660691  6.421903  -0.601595  2.310173  17.483722  -2.239622  6.106638  17.483722  -2.239622  6.106638  -5.044439  -1.883821  -1.505591  -176.916901  25.460831  -154.768939  -21.65324  -5.289045  73.687252  86.6878  0.615466  19.563798  -2.473152  -12.482374  14.349886  89.579839  33.275846  23.161333  6.278417  -22.574527  -96.470927  58.720122  -2.948955  -23.367533  -23.866452  2.852145  1.375745  -17.902646  2.089146  1.145233  
0.0  89.887642  0.0  5.826088  -27.806923  -101.543889  12.107075  -14.357497  5.622979  6.625333  11.640274  29.297596  0.068403  -0.073506  -1.447547  -8.719972  9.48025  -11.238894  -8.201669  11.598691  23.957283  13.296972  4.78649  -0.464842  6.305121  -0.701554  2.123981  17.164593  -2.45204  5.580627  17.164592  -2.45204  5.580626  -3.986336  0.578736  3.3056  -174.839679  24.346882  -161.011775  -31.770685  5.69606  79.885634  73.814357  0.148137  20.914316  -5.592962  -10.344663  16.880212  84.356187  33.481675  21.837178  3.125769  -19.529554  -95.124132  64.206933  -0.505198  -20.811136  -20.357068  3.898103  1.634921  -15.272446  2.872916  1.35761  
0.0  89.887642  0.0  6.458294  -32.339605  -102.54876  11.094851  -15.048765  6.203748  10.892922  13.301463  31.991881  0.57033  -0.241551  -1.784564  -5.397709  8.940106  -11.726867  -6.62667  11.333476  25.316028  13.532202  4.751775  -0.251115  6.097023  -0.625224  2.066388  16.603762  -2.213646  5.451944  16.603761  -2.213646  5.451944  -3.721434  2.243825  5.666413  -173.465698  22.538429  -168.607207  -40.536912  16.99468  80.756761  55.484063  1.79664  27.557066  -8.679883  -8.590275  18.716764  78.332258  34.66994  19.965277  -1.323936  -15.508707  -92.162654  71.791981  0.364232  -15.650807  -16.843005  3.816875  1.759943  -12.638686  2.81672  1.426128  
0.0  89.887642  0.0  7.247575  -34.983915  -104.225366  9.430499  -16.622698  7.027548  14.801316  15.670681  35.606663  0.332595  -0.413075  -1.995358  -3.816377  9.124125  -11.761429  -6.330816  11.269049  26.282031  13.603767  4.667899  -0.08793  5.484517  -0.464669  2.138452  14.939913  -1.744531  5.706909  14.939912  -1.744531  5.706909  -2.412884  3.692389  9.860107  -171.671814  19.047662  -174.249372  -47.844224  28.263877  77.432846  38.339571  9.895538  37.579352  -10.490829  -6.62852  20.414282  71.899071  36.711919  17.375646  -6.960193  -8.002472  -87.015188  77.138541  -0.743187  -10.78532  -12.958655  3.249373  1.794087  -9.726022  2.400296  1.41494  
0.0  89.887642  0.0  7.716175  -36.296972  -105.337037  7.456291  -17.175486  7.104318  17.53383  17.032172  39.080762  0.081502  -0.323829  -1.643549  -5.877257  9.421089  -11.658308  -5.107886  10.910733  26.271004  14.031182  4.768779  0.007078  4.425045  -0.294371  2.02587  12.062125  -1.170541  5.462991  12.062125  -1.170541  5.462992  1.91015  5.336804  17.06312  -174.396703  14.604178  -175.405438  -57.092795  29.470276  73.30729  20.983622  20.451047  43.383637  -9.683383  -4.522755  22.829836  65.96163  39.525039  14.552691  -11.154103  1.802882  -80.035325  79.237907  -2.800408  -8.31155  -8.29565  2.682177  2.367812  -6.231107  1.979965  1.812364  
